<svg width="128" height="128" version="1.1" xmlns="http://www.w3.org/2000/svg" desc="Created with imagetracer.js version 1.2.6" ><path fill="rgb(65,65,65)" stroke="rgb(65,65,65)" stroke-width="1" opacity="1" d="M 22.5 20 L 20.5 23 L 22.5 20 Z " /><path fill="rgb(65,65,65)" stroke="rgb(65,65,65)" stroke-width="1" opacity="1" d="M 97.5 20 L 99.5 23 L 97.5 20 Z " /><path fill="rgb(65,65,65)" stroke="rgb(65,65,65)" stroke-width="1" opacity="1" d="M 10.5 21 L 11 23.5 L 10 23.5 L 10.5 21 Z " /><path fill="rgb(65,65,65)" stroke="rgb(65,65,65)" stroke-width="1" opacity="1" d="M 109.5 21 L 110 23.5 L 109 23.5 L 109.5 21 Z " /><path fill="rgb(65,65,65)" stroke="rgb(65,65,65)" stroke-width="1" opacity="1" d="M 35.5 33 L 33.5 36 L 35.5 33 Z " /><path fill="rgb(65,65,65)" stroke="rgb(65,65,65)" stroke-width="1" opacity="1" d="M 54.5 33 L 56.5 36 L 54.5 33 Z " /><path fill="rgb(65,65,65)" stroke="rgb(65,65,65)" stroke-width="1" opacity="1" d="M 33.5 54 L 35.5 57 L 33.5 54 Z " /><path fill="rgb(65,65,65)" stroke="rgb(65,65,65)" stroke-width="1" opacity="1" d="M 56.5 54 L 54.5 57 L 56.5 54 Z " /><path fill="rgb(65,65,65)" stroke="rgb(65,65,65)" stroke-width="1" opacity="1" d="M 71.5 56 L 28.5 100 L 71.5 56 Z " /><path fill="rgb(65,65,65)" stroke="rgb(65,65,65)" stroke-width="1" opacity="1" d="M 93.5 56 L 99.5 63 L 93.5 56 Z " /><path fill="rgb(65,65,65)" stroke="rgb(65,65,65)" stroke-width="1" opacity="1" d="M 85.5 62 L 101.5 79 L 85.5 62 Z " /><path fill="rgb(65,65,65)" stroke="rgb(65,65,65)" stroke-width="1" opacity="1" d="M 83.5 77 L 87 77.5 L 83.5 78 L 83.5 77 Z " /><path fill="rgb(65,65,65)" stroke="rgb(65,65,65)" stroke-width="1" opacity="1" d="M 53.5 88 L 42.5 100 L 53.5 88 Z " /><path fill="rgb(65,65,65)" stroke="rgb(65,65,65)" stroke-width="1" opacity="1" d="M 66.5 94 L 66 95.5 L 65.5 97 L 65 95.5 L 66.5 94 Z " /><path fill="rgb(65,65,65)" stroke="rgb(65,65,65)" stroke-width="1" opacity="1" d="M 103.5 94 L 105 96.5 L 104 96.5 L 103.5 94 Z " /><path fill="rgb(65,65,65)" stroke="rgb(65,65,65)" stroke-width="1" opacity="1" d="M 10.5 96 L 11 98.5 L 10 98.5 L 10.5 96 Z " /><path fill="rgb(65,65,65)" stroke="rgb(65,65,65)" stroke-width="1" opacity="1" d="M 20.5 97 L 22.5 100 L 20.5 97 Z " /><path fill="rgb(65,65,65)" stroke="rgb(65,65,65)" stroke-width="1" opacity="1" d="M 65.5 98 L 68 101.5 L 65 99.5 L 65.5 98 Z " /><path fill="rgb(65,65,65)" stroke="rgb(65,65,65)" stroke-width="1" opacity="1" d="M 55.5 107 L 54.5 109 L 55.5 107 Z " /><path fill="rgb(195,195,195)" stroke="rgb(195,195,195)" stroke-width="1" opacity="1" d="M 16.5 12 L 15.5 14 L 16.5 12 Z " /><path fill="rgb(195,195,195)" stroke="rgb(195,195,195)" stroke-width="1" opacity="1" d="M 103.5 12 L 104.5 14 L 103.5 12 Z " /><path fill="rgb(195,195,195)" stroke="rgb(195,195,195)" stroke-width="1" opacity="1" d="M 13.5 15 L 12.5 17 L 13.5 15 Z " /><path fill="rgb(195,195,195)" stroke="rgb(195,195,195)" stroke-width="1" opacity="1" d="M 106.5 15 L 107.5 17 L 106.5 15 Z " /><path fill="rgb(195,195,195)" stroke="rgb(195,195,195)" stroke-width="1" opacity="1" d="M 81.5 51 L 84 51.5 L 81.5 52 L 81.5 51 Z " /><path fill="rgb(195,195,195)" stroke="rgb(195,195,195)" stroke-width="1" opacity="1" d="M 73.5 54 L 72.5 56 L 73.5 54 Z " /><path fill="rgb(195,195,195)" stroke="rgb(195,195,195)" stroke-width="1" opacity="1" d="M 91.5 54 L 92.5 56 L 91.5 54 Z " /><path fill="rgb(195,195,195)" stroke="rgb(195,195,195)" stroke-width="1" opacity="1" d="M 78.5 63 L 54.5 88 L 78.5 63 Z " /><path fill="rgb(195,195,195)" stroke="rgb(195,195,195)" stroke-width="1" opacity="1" d="M 109.5 77 L 107.5 80 L 109.5 77 Z " /><path fill="rgb(195,195,195)" stroke="rgb(195,195,195)" stroke-width="1" opacity="1" d="M 81.5 78 L 66.5 94 L 81.5 78 Z " /><path fill="rgb(195,195,195)" stroke="rgb(195,195,195)" stroke-width="1" opacity="1" d="M 88.5 78 L 103.5 94 L 88.5 78 Z " /><path fill="rgb(195,195,195)" stroke="rgb(195,195,195)" stroke-width="1" opacity="1" d="M 79.5 95 L 74.5 101 L 79.5 95 Z " /><path fill="rgb(195,195,195)" stroke="rgb(195,195,195)" stroke-width="1" opacity="1" d="M 90.5 95 L 95.5 101 L 90.5 95 Z " /><path fill="rgb(195,195,195)" stroke="rgb(195,195,195)" stroke-width="1" opacity="1" d="M 12.5 103 L 13.5 105 L 12.5 103 Z " /><path fill="rgb(195,195,195)" stroke="rgb(195,195,195)" stroke-width="1" opacity="1" d="M 56.5 103 L 57 106.5 L 56 106.5 L 56.5 103 Z " /><path fill="rgb(195,195,195)" stroke="rgb(195,195,195)" stroke-width="1" opacity="1" d="M 15.5 106 L 16.5 108 L 15.5 106 Z " /><path fill="rgb(254,254,254)" stroke="rgb(254,254,254)" stroke-width="1" opacity="1" d="M 70.5 56 L 66.5 61 L 70.5 56 Z " /><path fill="rgb(254,254,254)" stroke="rgb(254,254,254)" stroke-width="1" opacity="1" d="M 54.5 100 L 56.5 103 L 54.5 100 Z " /><path fill="rgb(254,254,254)" stroke="rgb(254,254,254)" stroke-width="1" opacity="1" d="M 65.5 100 L 66.5 102 L 65.5 100 Z " /><path fill="rgb(254,254,254)" stroke="rgb(254,254,254)" stroke-width="1" opacity="1" d="M 104.5 100 L 103.5 102 L 104.5 100 Z " /><path fill="rgb(255,255,255)" stroke="rgb(255,255,255)" stroke-width="1" opacity="1" d="M 0 0 L 128 0 L 128 128 L 0 128 L 0 0 Z M 20 10 L 18 11 Q 12 14 10 21 L 10 100 L 11 103 L 21 110 L 54 110 L 56 109 L 57 103 L 55 100 L 43 100 L 82 62 L 86 63 L 103 80 Q 109 81 110 78 L 110 21 L 109 18 L 101 10 L 20 10 Z M 84 77 L 82 78 L 65 95 L 65 101 L 69 103 Q 77 103 80 96 L 80 113 Q 81 116 88 115 L 90 113 L 91 96 L 99 103 L 104 102 Q 106 101 105 95 L 89 78 L 84 77 Z " /><path fill="rgb(255,255,255)" stroke="rgb(255,255,255)" stroke-width="1" opacity="1" d="M 25.5 20 L 94.5 20 L 98 21 L 100 25.5 L 100 61.5 L 90.5 53 L 80.5 51 L 74.5 53 L 66 60.5 L 64.5 63 Q 62.3 62.3 63 64.5 L 27.5 100 L 25.5 100 L 21 97.5 L 20 94.5 L 20 25.5 L 22.5 21 L 25.5 20 Z M 41 30 L 38 31 Q 32 34 30 41 L 31 53 Q 34 58 41 60 L 53 59 Q 58 56 60 50 L 59 38 Q 55 28 41 30 Z " /><path fill="rgb(255,255,255)" stroke="rgb(255,255,255)" stroke-width="1" opacity="1" d="M 42.5 41 Q 47.8 39.8 49 42.5 Q 50.3 47.8 47.5 49 Q 42.3 50.3 41 47.5 Q 39.8 42.3 42.5 41 Z " /><path fill="rgb(0,0,0)" stroke="rgb(0,0,0)" stroke-width="1" opacity="1" d="M 23.5 10 L 96.5 10 Q 104.6 11.4 108 17.5 L 110 24.5 L 110 75.5 L 107.5 79 L 104.5 80 L 85.5 62 L 82.5 61 L 79.5 62 L 42 99.5 L 52.5 100 L 55 101 L 56 106.5 L 51.5 110 L 24.5 110 L 17.5 108 L 12 102.5 L 10 95.5 L 10 24.5 L 12 17.5 L 17.5 12 L 23.5 10 Z M 23 20 L 20 23 L 20 98 L 23 100 L 29 100 L 75 54 L 80 52 L 89 53 L 100 63 L 100 23 L 98 20 L 23 20 Z " /><path fill="rgb(0,0,0)" stroke="rgb(0,0,0)" stroke-width="1" opacity="1" d="M 43.5 30 Q 54.3 30.3 58 37.5 L 60 46.5 Q 58.6 54.6 52.5 58 L 43.5 60 Q 35.4 58.6 32 52.5 L 30 43.5 Q 31.4 35.4 37.5 32 L 43.5 30 Z M 43 40 Q 39 41 40 48 Q 41 51 48 50 Q 51 49 50 43 Q 49 39 43 40 Z " /><path fill="rgb(0,0,0)" stroke="rgb(0,0,0)" stroke-width="1" opacity="1" d="M 82.5 78 L 87.5 78 L 103 93.5 L 105 97.5 L 104 101 L 98.5 102 L 90.5 95 L 90 110.5 L 87.5 114 L 84.5 115 L 81 112.5 L 80 110.5 L 79.5 95 Q 77 101.5 68.5 102 L 65 97.5 L 67 93.5 L 82.5 78 Z " /></svg>